<svg width="1055" height="529" viewBox="0 0 1055 529" fill="none" xmlns="http://www.w3.org/2000/svg">
<path d="M4.21402 -13.3048C57.8887 85.5742 167.882 260.783 406.096 155.739C406.096 155.739 681.368 370.842 1125.88 65.4202" stroke="white" stroke-width="9.58926"/>
<path d="M521.259 228.426L534.222 212.709L550.508 216.756L554.607 236.712L521.259 228.426Z" fill="white"/>
<path d="M521.118 298.136L576.837 240.344L498.929 220.986L521.118 298.136Z" fill="#1500FF"/>
<path d="M758.894 240.133L764.167 220.454L780.664 217.379L792.673 233.837L758.894 240.133Z" fill="white"/>
<path d="M787.687 303.618L814.407 227.918L735.489 242.628L787.687 303.618Z" fill="#1500FF"/>
<path d="M965.87 178.574L965.502 158.204L980.508 150.692L996.596 163.192L965.87 178.574Z" fill="white"/>
<path d="M1011.08 231.636L1015.85 151.501L944.064 187.437L1011.08 231.636Z" fill="#1500FF"/>
<path d="M311.365 200.563L316.141 180.758L332.556 177.269L344.975 193.419L311.365 200.563Z" fill="white"/>
<path d="M341.746 263.304L366.553 186.956L288.03 203.647L341.746 263.304Z" fill="#FFFB00"/>
<path d="M639.611 248.043L647.799 229.388L664.571 228.842L673.954 246.926L639.611 248.043Z" fill="white"/>
<path d="M658.476 315.152L696.333 244.361L616.098 246.972L658.476 315.152Z" fill="#FFFB00"/>
<path d="M869.809 216.948L871.422 196.639L887.086 190.62L901.884 204.623L869.809 216.948Z" fill="white"/>
<path d="M909.65 274.151L922.182 194.857L847.246 223.651L909.65 274.151Z" fill="#FFFB00"/>
<path d="M189.368 190.464L202.359 174.771L218.638 178.847L222.7 198.812L189.368 190.464Z" fill="white"/>
<path d="M189.097 260.175L244.923 202.486L167.05 182.985L189.097 260.175Z" fill="#FF0000"/>
<path d="M422.966 188.642L439.052 176.139L454.059 183.649L453.695 204.019L422.966 188.642Z" fill="white"/>
<path d="M407.586 256.636L474.592 212.425L402.801 176.501L407.586 256.636Z" fill="#FF0000"/>
</svg>
