<svg width="884" height="264" viewBox="0 0 884 264" fill="none" xmlns="http://www.w3.org/2000/svg">
<path d="M3.25635 7.61938C120.991 116.564 411.759 269.087 632.951 7.61938C632.951 7.61938 725.115 126.691 880.756 242.118" stroke="white" stroke-width="9.58926"/>
<path d="M277.977 163.461L288.64 146.101L305.33 147.855L312.15 167.053L277.977 163.461Z" fill="white"/>
<path d="M287.483 232.519L334.669 167.573L254.832 159.182L287.483 232.519Z" fill="#1500FF"/>
<path d="M677.722 88.2403L696.838 81.1946L708.867 92.8956L702.353 112.199L677.722 88.2403Z" fill="white"/>
<path d="M642.478 148.384L719.726 126.537L662.182 70.5621L642.478 148.384Z" fill="#FF0000"/>
<path d="M171.905 133.791L186.904 120.003L202.48 126.249L203.798 146.579L171.905 133.791Z" fill="white"/>
<path d="M162.19 202.82L225.319 153.23L150.808 123.354L162.19 202.82Z" fill="#FF0000"/>
<path d="M405.073 163.457L409.85 143.652L426.264 140.163L438.684 156.313L405.073 163.457Z" fill="white"/>
<path d="M435.454 226.198L460.261 149.85L381.738 166.541L435.454 226.198Z" fill="#FFFB00"/>
<path d="M769.196 170.99L787.923 162.967L800.54 174.031L795.031 193.646L769.196 170.99Z" fill="white"/>
<path d="M737.103 232.873L813.12 207.068L752.764 154.138L737.103 232.873Z" fill="#FFFB00"/>
<path d="M525.032 123.421L522.882 103.162L537.173 94.3647L554.293 105.409L525.032 123.421Z" fill="white"/>
<path d="M574.712 172.324L572.45 92.0784L504.087 134.16L574.712 172.324Z" fill="#1500FF"/>
</svg>
