<svg width="808" height="197" viewBox="0 0 808 197" fill="none" xmlns="http://www.w3.org/2000/svg">
<path d="M804.5 -59C686.765 49.9447 395.997 202.467 174.805 -59C174.805 -59 82.6418 60.0721 -73 175.499" stroke="white" stroke-width="9.58926"/>
<path d="M529.779 96.8416L519.116 79.4817L502.427 81.2358L495.606 100.433L529.779 96.8416Z" fill="white"/>
<path d="M520.273 165.9L473.087 100.954L552.925 92.5627L520.273 165.9Z" fill="#1500FF"/>
<path d="M130.034 21.6209L110.918 14.5753L98.8893 26.2762L105.404 45.5799L130.034 21.6209Z" fill="white"/>
<path d="M165.278 81.7644L88.031 59.9173L145.575 3.94272L165.278 81.7644Z" fill="#FF0000"/>
<path d="M635.851 67.172L620.853 53.3841L605.277 59.6294L603.958 79.9599L635.851 67.172Z" fill="white"/>
<path d="M645.566 136.201L582.437 86.6106L656.948 56.7347L645.566 136.201Z" fill="#FFFB00"/>
<path d="M402.683 96.8378L397.906 77.0325L381.492 73.5435L369.072 89.6937L402.683 96.8378Z" fill="white"/>
<path d="M372.302 159.579L347.495 83.2306L426.018 99.9212L372.302 159.579Z" fill="#FF0000"/>
<path d="M38.5604 104.37L19.8334 96.3475L7.21655 107.412L12.726 127.026L38.5604 104.37Z" fill="white"/>
<path d="M70.6534 166.253L-5.36338 140.448L54.9928 87.5183L70.6534 166.253Z" fill="#FFFB00"/>
<path d="M282.725 56.8016L284.874 36.5421L270.583 27.7453L253.463 38.7893L282.725 56.8016Z" fill="white"/>
<path d="M233.044 105.704L235.306 25.4591L303.669 67.5408L233.044 105.704Z" fill="#1500FF"/>
</svg>
