<svg width="1733" height="1068" viewBox="0 0 1733 1068" fill="none" xmlns="http://www.w3.org/2000/svg">
<rect x="330" y="64" width="20" height="20" fill="#F5F5F5"/>
<rect x="134" y="369" width="20" height="20" fill="#F5F5F5"/>
<rect x="553" y="766" width="20" height="20" fill="#F5F5F5"/>
<rect x="622" y="1048" width="20" height="20" fill="#F5F5F5"/>
<rect y="1048" width="20" height="20" fill="#F5F5F5"/>
<rect x="386" y="265" width="20" height="20" fill="#F5F5F5"/>
<rect x="906" y="978" width="20" height="20" fill="#F5F5F5"/>
<rect x="844" y="34" width="20" height="20" fill="#F5F5F5"/>
<rect x="854" y="285" width="20" height="20" fill="#F5F5F5"/>
<rect x="592" y="541" width="20" height="20" fill="#F5F5F5"/>
<rect x="95" y="129" width="20" height="20" fill="#F5F5F5"/>
<rect x="824" y="585" width="20" height="20" fill="#F5F5F5"/>
<rect x="1017" y="83" width="20" height="20" fill="#F5F5F5"/>
<rect x="1665" y="551" width="20" height="20" fill="#F5F5F5"/>
<rect x="1316" y="97" width="20" height="20" fill="#F5F5F5"/>
<rect x="1650" width="20" height="20" fill="#F5F5F5"/>
<rect x="1713" y="858" width="20" height="20" fill="#F5F5F5"/>
<rect x="1173" y="896" width="20" height="20" fill="#F5F5F5"/>
</svg>
